<mxfile host="app.diagrams.net" modified="2024-05-22T02:09:46.017Z" agent="Mozilla/5.0 (Windows NT 10.0; Win64; x64) AppleWebKit/537.36 (KHTML, like Gecko) Chrome/125.0.0.0 Safari/537.36" version="24.4.4" etag="R7CBOM8Cj_VMqSyqTive" type="github">
  <diagram name="第 1 页" id="pn2h-lFcv4Sdc6MpK6sb">
    <mxGraphModel>
      <root>
        <mxCell id="0" />
        <mxCell id="1" parent="0" />
      </root>
    </mxGraphModel>
  </diagram>
</mxfile>
